<svg width="286" height="282" viewBox="0 0 286 282" fill="none" xmlns="http://www.w3.org/2000/svg">
    <g opacity="0.2">
        <path fill-rule="evenodd" clip-rule="evenodd"
              d="M336 166C336 198.478 326.561 228.777 310.245 254.366L330.405 314.219C332.161 319.433 327.113 324.378 321.851 322.598L263.245 302.763C236.177 321.203 203.365 332 168 332C75.2162 332 0 257.679 0 166C0 74.3207 75.2162 0 168 0C260.784 0 336 74.3207 336 166ZM62.1603 165.998C62.1603 186.459 68.1069 205.548 78.3857 221.668L65.6847 259.376C64.5782 262.661 67.7587 265.777 71.0735 264.655L107.996 252.159C125.049 263.776 145.721 270.578 168 270.578C226.454 270.578 273.84 223.756 273.84 165.998C273.84 108.24 226.454 61.4184 168 61.4184C109.546 61.4184 62.1603 108.24 62.1603 165.998Z"
              fill="#DDDDDD"/>
        <path d="M197.552 139.773C197.552 124.017 184.403 111.247 168.186 111.247C151.969 111.247 138.82 124.018 138.82 139.773C138.82 150.293 144.687 159.484 153.419 164.43C153.828 164.661 154.034 165.14 153.908 165.592L138.802 219.481C138.624 220.119 139.103 220.751 139.765 220.751H196.154C196.816 220.751 197.295 220.119 197.117 219.481L182.07 165.798C181.942 165.34 182.155 164.856 182.572 164.628C191.51 159.734 197.552 150.443 197.552 139.773Z"
              fill="#DDDDDD"/>
    </g>
</svg>
