<svg width="270" height="63" viewBox="0 0 270 63" fill="none" xmlns="http://www.w3.org/2000/svg">
<path fill-rule="evenodd" clip-rule="evenodd" d="M63.6847 31.5C63.6847 37.663 61.8956 43.4126 58.8031 48.2682L62.6242 59.6259C62.9571 60.6154 62.0002 61.5537 61.003 61.2158L49.8949 57.452C44.7645 60.9512 38.5453 63 31.8424 63C14.2563 63 0 48.897 0 31.5C0 14.103 14.2563 0 31.8424 0C49.4284 0 63.6847 14.103 63.6847 31.5ZM11.7817 31.4997C11.7817 35.3823 12.9089 39.0045 14.8571 42.0635L12.4497 49.219C12.24 49.8424 12.8428 50.4336 13.4711 50.2207L20.4693 47.8495C23.7015 50.0539 27.6196 51.3447 31.8424 51.3447C42.9217 51.3447 51.9031 42.4598 51.9031 31.4997C51.9031 20.5396 42.9217 11.6547 31.8424 11.6547C20.7632 11.6547 11.7817 20.5396 11.7817 31.4997Z" fill="white"/>
<path d="M37.4436 26.5231C37.4436 23.5333 34.9513 21.1101 31.8776 21.1101C28.804 21.1101 26.3117 23.5335 26.3117 26.5231C26.3117 28.2905 27.1831 29.8601 28.5314 30.8481C28.9104 31.1258 29.1222 31.5979 28.9956 32.0504L26.5963 40.6199C26.4178 41.2575 26.8971 41.8895 27.5593 41.8895H36.1101C36.7723 41.8895 37.2516 41.2575 37.0731 40.6199L34.6876 32.0989C34.5594 31.6412 34.7776 31.164 35.1647 30.8881C36.5461 29.9031 37.4436 28.3156 37.4436 26.5231Z" fill="white"/>
<path d="M89.7351 44.2975L80.3561 18.802H85.8337L92.533 38.3719H92.6118L99.2717 18.802H104.631L95.2916 44.2975H89.7351Z" fill="white"/>
<path d="M107.993 44.2975V26.3456H112.682V44.2975H107.993Z" fill="white"/>
<path d="M127.735 30.5752C127.682 29.9774 127.393 29.4966 126.868 29.1328C126.342 28.7689 125.62 28.587 124.7 28.587C123.65 28.587 122.861 28.7949 122.336 29.2107C121.837 29.6266 121.587 30.1593 121.587 30.8091C121.587 31.3808 121.863 31.7837 122.415 32.0176C122.966 32.2515 123.663 32.4334 124.503 32.5633C125.344 32.6933 126.237 32.8232 127.183 32.9532C128.155 33.0831 129.062 33.343 129.902 33.7329C130.743 34.1227 131.439 34.6815 131.991 35.4092C132.543 36.1369 132.818 37.1634 132.818 38.4889C132.818 39.3985 132.621 40.2432 132.227 41.0229C131.859 41.8025 131.321 42.4783 130.612 43.05C129.902 43.5958 129.035 44.0246 128.011 44.3365C127.012 44.6484 125.896 44.8043 124.661 44.8043C123.426 44.8043 122.31 44.6484 121.311 44.3365C120.313 44.0246 119.459 43.5958 118.75 43.05C118.041 42.5042 117.489 41.8545 117.095 41.1008C116.701 40.3471 116.49 39.5155 116.464 38.6059H121.193C121.219 39.2556 121.508 39.7754 122.06 40.1652C122.638 40.555 123.479 40.75 124.582 40.75C125.843 40.75 126.736 40.5421 127.262 40.1262C127.814 39.7104 128.089 39.1646 128.089 38.4889C128.089 37.9171 127.814 37.5273 127.262 37.3194C126.71 37.0855 126.014 36.9165 125.173 36.8126C124.333 36.6826 123.426 36.5527 122.454 36.4228C121.508 36.2928 120.615 36.0459 119.774 35.6821C118.934 35.2922 118.238 34.7205 117.686 33.9668C117.134 33.2131 116.858 32.1605 116.858 30.8091C116.858 29.8994 117.042 29.0678 117.41 28.3141C117.778 27.5344 118.29 26.8717 118.947 26.3259C119.63 25.7542 120.444 25.3123 121.39 25.0005C122.362 24.6886 123.439 24.5327 124.622 24.5327C125.804 24.5327 126.868 24.6886 127.814 25.0005C128.759 25.3123 129.561 25.7412 130.217 26.2869C130.901 26.8327 131.426 27.4695 131.794 28.1972C132.162 28.9249 132.359 29.7175 132.385 30.5752H127.735Z" fill="white"/>
<path d="M136.586 44.2975V26.3456H141.276V44.2975H136.586Z" fill="white"/>
<path d="M165.983 34.6685C165.983 36.1239 165.721 37.4753 165.195 38.7228C164.696 39.9703 163.973 41.0488 163.028 41.9585C162.108 42.8421 161.005 43.5438 159.717 44.0636C158.43 44.5574 157.025 44.8043 155.501 44.8043C153.951 44.8043 152.532 44.5574 151.245 44.0636C149.984 43.5438 148.88 42.8421 147.935 41.9585C147.015 41.0488 146.293 39.9703 145.767 38.7228C145.268 37.4753 145.018 36.1239 145.018 34.6685C145.018 33.2131 145.268 31.8616 145.767 30.6142C146.293 29.3667 147.015 28.3011 147.935 27.4175C148.88 26.5078 149.984 25.8061 151.245 25.3123C152.532 24.7926 153.951 24.5327 155.501 24.5327C157.025 24.5327 158.43 24.7926 159.717 25.3123C161.005 25.8061 162.108 26.5078 163.028 27.4175C163.973 28.3011 164.696 29.3667 165.195 30.6142C165.721 31.8616 165.983 33.2131 165.983 34.6685ZM155.501 40.4771C157.235 40.4771 158.614 39.9443 159.639 38.8787C160.69 37.7872 161.215 36.3838 161.215 34.6685C161.215 32.9532 160.69 31.5628 159.639 30.4972C158.614 29.4057 157.235 28.8599 155.501 28.8599C153.767 28.8599 152.375 29.4057 151.324 30.4972C150.273 31.5628 149.747 32.9532 149.747 34.6685C149.747 36.3838 150.273 37.7872 151.324 38.8787C152.375 39.9443 153.767 40.4771 155.501 40.4771Z" fill="white"/>
<path d="M187.415 44.2975L180.44 34.6295H172.598V44.2975H169.76V18.802H181.149C182.673 18.802 183.986 19.0099 185.09 19.4258C186.193 19.8156 187.1 20.3614 187.809 21.0631C188.518 21.7648 189.044 22.5965 189.385 23.5581C189.727 24.5197 189.898 25.5592 189.898 26.6768C189.898 28.652 189.372 30.3413 188.321 31.7447C187.297 33.1481 185.668 34.0447 183.435 34.4346V34.5125L190.843 44.2975H187.415ZM181.188 32.0566C182.266 32.0566 183.172 31.9266 183.908 31.6667C184.643 31.3808 185.234 31.004 185.681 30.5362C186.154 30.0424 186.495 29.4706 186.706 28.8209C186.916 28.1452 187.021 27.4305 187.021 26.6768C187.021 25.9231 186.916 25.2214 186.706 24.5716C186.495 23.9219 186.154 23.3631 185.681 22.8953C185.234 22.4275 184.643 22.0637 183.908 21.8038C183.172 21.5179 182.266 21.375 181.188 21.375H172.598V32.0566H181.188Z" fill="white"/>
<path d="M213.896 34.6685C213.896 36.1239 213.633 37.4753 213.108 38.7228C212.609 39.9703 211.886 41.0488 210.94 41.9585C210.021 42.8421 208.917 43.5438 207.63 44.0636C206.343 44.5574 204.937 44.8043 203.413 44.8043C201.863 44.8043 200.445 44.5574 199.157 44.0636C197.896 43.5438 196.793 42.8421 195.847 41.9585C194.928 41.0488 194.205 39.9703 193.68 38.7228C193.181 37.4753 192.931 36.1239 192.931 34.6685C192.931 33.2131 193.181 31.8616 193.68 30.6142C194.205 29.3667 194.928 28.3011 195.847 27.4175C196.793 26.5078 197.896 25.8061 199.157 25.3123C200.445 24.7926 201.863 24.5327 203.413 24.5327C204.937 24.5327 206.343 24.7926 207.63 25.3123C208.917 25.8061 210.021 26.5078 210.94 27.4175C211.886 28.3011 212.609 29.3667 213.108 30.6142C213.633 31.8616 213.896 33.2131 213.896 34.6685ZM203.413 42.3873C204.569 42.3873 205.62 42.1924 206.566 41.8025C207.538 41.4127 208.366 40.8799 209.049 40.2042C209.732 39.5025 210.257 38.6838 210.625 37.7482C211.019 36.8126 211.216 35.786 211.216 34.6685C211.216 33.5509 211.019 32.5244 210.625 31.5888C210.257 30.6531 209.732 29.8475 209.049 29.1717C208.366 28.47 207.538 27.9243 206.566 27.5344C205.62 27.1446 204.569 26.9497 203.413 26.9497C202.257 26.9497 201.193 27.1446 200.221 27.5344C199.276 27.9243 198.461 28.47 197.778 29.1717C197.095 29.8475 196.556 30.6531 196.162 31.5888C195.795 32.5244 195.611 33.5509 195.611 34.6685C195.611 35.786 195.795 36.8126 196.162 37.7482C196.556 38.6838 197.095 39.5025 197.778 40.2042C198.461 40.8799 199.276 41.4127 200.221 41.8025C201.193 42.1924 202.257 42.3873 203.413 42.3873Z" fill="white"/>
<path d="M237.14 34.6685C237.14 36.1239 236.877 37.4753 236.352 38.7228C235.853 39.9703 235.13 41.0488 234.185 41.9585C233.265 42.8421 232.162 43.5438 230.874 44.0636C229.587 44.5574 228.182 44.8043 226.658 44.8043C225.108 44.8043 223.689 44.5574 222.402 44.0636C221.141 43.5438 220.037 42.8421 219.091 41.9585C218.172 41.0488 217.449 39.9703 216.924 38.7228C216.425 37.4753 216.175 36.1239 216.175 34.6685C216.175 33.2131 216.425 31.8616 216.924 30.6142C217.449 29.3667 218.172 28.3011 219.091 27.4175C220.037 26.5078 221.141 25.8061 222.402 25.3123C223.689 24.7926 225.108 24.5327 226.658 24.5327C228.182 24.5327 229.587 24.7926 230.874 25.3123C232.162 25.8061 233.265 26.5078 234.185 27.4175C235.13 28.3011 235.853 29.3667 236.352 30.6142C236.877 31.8616 237.14 33.2131 237.14 34.6685ZM226.658 42.3873C227.814 42.3873 228.865 42.1924 229.81 41.8025C230.782 41.4127 231.61 40.8799 232.293 40.2042C232.976 39.5025 233.502 38.6838 233.869 37.7482C234.263 36.8126 234.46 35.786 234.46 34.6685C234.46 33.5509 234.263 32.5244 233.869 31.5888C233.502 30.6531 232.976 29.8475 232.293 29.1717C231.61 28.47 230.782 27.9243 229.81 27.5344C228.865 27.1446 227.814 26.9497 226.658 26.9497C225.502 26.9497 224.438 27.1446 223.466 27.5344C222.52 27.9243 221.706 28.47 221.022 29.1717C220.339 29.8475 219.801 30.6531 219.407 31.5888C219.039 32.5244 218.855 33.5509 218.855 34.6685C218.855 35.786 219.039 36.8126 219.407 37.7482C219.801 38.6838 220.339 39.5025 221.022 40.2042C221.706 40.8799 222.52 41.4127 223.466 41.8025C224.438 42.1924 225.502 42.3873 226.658 42.3873Z" fill="white"/>
<path d="M253.803 44.2975V33.0312C253.803 31.004 253.278 29.4836 252.227 28.47C251.176 27.4565 249.863 26.9497 248.286 26.9497C246.71 26.9497 245.41 27.4565 244.385 28.47C243.36 29.4576 242.848 30.978 242.848 33.0312V44.2975H240.208V33.0312C240.208 31.6017 240.405 30.3543 240.799 29.2887C241.193 28.2231 241.745 27.3395 242.454 26.6378C243.163 25.9361 243.991 25.4163 244.937 25.0784C245.909 24.7146 246.96 24.5327 248.089 24.5327C249.666 24.5327 251.058 24.8965 252.267 25.6242C253.501 26.3259 254.434 27.3785 255.064 28.7819H255.143C255.748 27.3785 256.654 26.3259 257.862 25.6242C259.097 24.8965 260.516 24.5327 262.118 24.5327C263.248 24.5327 264.286 24.7146 265.232 25.0784C266.204 25.4163 267.044 25.9361 267.754 26.6378C268.463 27.3395 269.015 28.2231 269.409 29.2887C269.803 30.3543 270 31.6017 270 33.0312V44.2975H267.36V33.0312C267.36 30.978 266.847 29.4576 265.823 28.47C264.798 27.4565 263.498 26.9497 261.921 26.9497C260.345 26.9497 259.032 27.4565 257.981 28.47C256.956 29.4836 256.444 31.004 256.444 33.0312V44.2975H253.803Z" fill="white"/>
<ellipse cx="110.393" cy="21.414" rx="2.64063" ry="2.61224" fill="white"/>
<ellipse cx="139.026" cy="21.414" rx="2.64063" ry="2.61224" fill="white"/>
</svg>
