<svg width="270" height="64" viewBox="0 0 270 64" fill="none" xmlns="http://www.w3.org/2000/svg">
<path fill-rule="evenodd" clip-rule="evenodd" d="M63.6847 31.68C63.6847 37.843 61.8956 43.5926 58.8031 48.4482L62.6242 59.8059C62.9571 60.7954 62.0002 61.7337 61.003 61.3958L49.8949 57.632C44.7645 61.1312 38.5453 63.18 31.8424 63.18C14.2563 63.18 0 49.077 0 31.68C0 14.283 14.2563 0.179993 31.8424 0.179993C49.4284 0.179993 63.6847 14.283 63.6847 31.68ZM11.7817 31.6797C11.7817 35.5623 12.9089 39.1845 14.8571 42.2435L12.4497 49.399C12.24 50.0224 12.8428 50.6136 13.4711 50.4007L20.4693 48.0294C23.7015 50.2339 27.6196 51.5247 31.8424 51.5247C42.9217 51.5247 51.9031 42.6398 51.9031 31.6797C51.9031 20.7196 42.9217 11.8347 31.8424 11.8347C20.7632 11.8347 11.7817 20.7196 11.7817 31.6797Z" fill="#26BDB4"/>
<path d="M37.4436 26.7031C37.4436 23.7133 34.9513 21.2901 31.8776 21.2901C28.804 21.2901 26.3117 23.7135 26.3117 26.7031C26.3117 28.4705 27.1831 30.0401 28.5314 31.0281C28.9104 31.3058 29.1222 31.7779 28.9956 32.2304L26.5963 40.7998C26.4178 41.4375 26.8971 42.0695 27.5593 42.0695H36.1101C36.7723 42.0695 37.2516 41.4375 37.0731 40.7999L34.6876 32.2789C34.5594 31.8212 34.7776 31.344 35.1647 31.068C36.5461 30.0831 37.4436 28.4956 37.4436 26.7031Z" fill="#26BDB4"/>
<path d="M89.7351 44.4775L80.3561 18.982H85.8337L92.533 38.5519H92.6118L99.2717 18.982H104.631L95.2916 44.4775H89.7351Z" fill="#142928"/>
<path d="M107.993 44.4775V26.5256H112.682V44.4775H107.993Z" fill="#142928"/>
<path d="M127.735 30.7552C127.682 30.1574 127.393 29.6766 126.868 29.3128C126.342 28.9489 125.62 28.767 124.7 28.767C123.65 28.767 122.861 28.9749 122.336 29.3907C121.837 29.8066 121.587 30.3393 121.587 30.9891C121.587 31.5608 121.863 31.9637 122.415 32.1976C122.966 32.4315 123.663 32.6134 124.503 32.7433C125.344 32.8733 126.237 33.0032 127.183 33.1332C128.155 33.2631 129.062 33.523 129.902 33.9129C130.743 34.3027 131.439 34.8615 131.991 35.5892C132.543 36.3169 132.818 37.3434 132.818 38.6689C132.818 39.5785 132.621 40.4232 132.227 41.2028C131.859 41.9825 131.321 42.6582 130.612 43.23C129.902 43.7758 129.035 44.2046 128.011 44.5165C127.012 44.8283 125.896 44.9843 124.661 44.9843C123.426 44.9843 122.31 44.8283 121.311 44.5165C120.313 44.2046 119.459 43.7758 118.75 43.23C118.041 42.6842 117.489 42.0345 117.095 41.2808C116.701 40.5271 116.49 39.6955 116.464 38.7858H121.193C121.219 39.4356 121.508 39.9554 122.06 40.3452C122.638 40.735 123.479 40.93 124.582 40.93C125.843 40.93 126.736 40.722 127.262 40.3062C127.814 39.8904 128.089 39.3446 128.089 38.6689C128.089 38.0971 127.814 37.7073 127.262 37.4994C126.71 37.2655 126.014 37.0965 125.173 36.9926C124.333 36.8626 123.426 36.7327 122.454 36.6027C121.508 36.4728 120.615 36.2259 119.774 35.8621C118.934 35.4722 118.238 34.9004 117.686 34.1468C117.134 33.3931 116.858 32.3405 116.858 30.9891C116.858 30.0794 117.042 29.2478 117.41 28.4941C117.778 27.7144 118.29 27.0517 118.947 26.5059C119.63 25.9342 120.444 25.4923 121.39 25.1805C122.362 24.8686 123.439 24.7127 124.622 24.7127C125.804 24.7127 126.868 24.8686 127.814 25.1805C128.759 25.4923 129.561 25.9212 130.217 26.4669C130.901 27.0127 131.426 27.6494 131.794 28.3771C132.162 29.1048 132.359 29.8975 132.385 30.7552H127.735Z" fill="#142928"/>
<path d="M136.586 44.4775V26.5256H141.276V44.4775H136.586Z" fill="#142928"/>
<path d="M165.983 34.8485C165.983 36.3039 165.721 37.6553 165.195 38.9028C164.696 40.1503 163.973 41.2288 163.028 42.1385C162.108 43.0221 161.005 43.7238 159.717 44.2436C158.43 44.7374 157.025 44.9843 155.501 44.9843C153.951 44.9843 152.532 44.7374 151.245 44.2436C149.984 43.7238 148.88 43.0221 147.935 42.1385C147.015 41.2288 146.293 40.1503 145.767 38.9028C145.268 37.6553 145.018 36.3039 145.018 34.8485C145.018 33.3931 145.268 32.0416 145.767 30.7941C146.293 29.5467 147.015 28.4811 147.935 27.5975C148.88 26.6878 149.984 25.9861 151.245 25.4923C152.532 24.9726 153.951 24.7127 155.501 24.7127C157.025 24.7127 158.43 24.9726 159.717 25.4923C161.005 25.9861 162.108 26.6878 163.028 27.5975C163.973 28.4811 164.696 29.5467 165.195 30.7941C165.721 32.0416 165.983 33.3931 165.983 34.8485ZM155.501 40.6571C157.235 40.6571 158.614 40.1243 159.639 39.0587C160.69 37.9672 161.215 36.5638 161.215 34.8485C161.215 33.1332 160.69 31.7428 159.639 30.6772C158.614 29.5856 157.235 29.0399 155.501 29.0399C153.767 29.0399 152.375 29.5856 151.324 30.6772C150.273 31.7428 149.747 33.1332 149.747 34.8485C149.747 36.5638 150.273 37.9672 151.324 39.0587C152.375 40.1243 153.767 40.6571 155.501 40.6571Z" fill="#142928"/>
<path d="M187.415 44.4775L180.44 34.8095H172.598V44.4775H169.76V18.982H181.149C182.673 18.982 183.986 19.1899 185.09 19.6058C186.193 19.9956 187.1 20.5414 187.809 21.2431C188.518 21.9448 189.044 22.7765 189.385 23.7381C189.727 24.6997 189.898 25.7392 189.898 26.8568C189.898 28.832 189.372 30.5213 188.321 31.9247C187.297 33.3281 185.668 34.2247 183.435 34.6146V34.6925L190.843 44.4775H187.415ZM181.188 32.2366C182.266 32.2366 183.172 32.1066 183.908 31.8467C184.643 31.5608 185.234 31.184 185.681 30.7162C186.154 30.2224 186.495 29.6506 186.706 29.0009C186.916 28.3252 187.021 27.6105 187.021 26.8568C187.021 26.1031 186.916 25.4014 186.706 24.7516C186.495 24.1019 186.154 23.5431 185.681 23.0753C185.234 22.6075 184.643 22.2437 183.908 21.9838C183.172 21.6979 182.266 21.555 181.188 21.555H172.598V32.2366H181.188Z" fill="#142928"/>
<path d="M213.896 34.8485C213.896 36.3039 213.633 37.6553 213.108 38.9028C212.609 40.1503 211.886 41.2288 210.94 42.1385C210.021 43.0221 208.917 43.7238 207.63 44.2436C206.343 44.7374 204.937 44.9843 203.413 44.9843C201.863 44.9843 200.445 44.7374 199.157 44.2436C197.896 43.7238 196.793 43.0221 195.847 42.1385C194.928 41.2288 194.205 40.1503 193.68 38.9028C193.181 37.6553 192.931 36.3039 192.931 34.8485C192.931 33.3931 193.181 32.0416 193.68 30.7941C194.205 29.5467 194.928 28.4811 195.847 27.5975C196.793 26.6878 197.896 25.9861 199.157 25.4923C200.445 24.9726 201.863 24.7127 203.413 24.7127C204.937 24.7127 206.343 24.9726 207.63 25.4923C208.917 25.9861 210.021 26.6878 210.94 27.5975C211.886 28.4811 212.609 29.5467 213.108 30.7941C213.633 32.0416 213.896 33.3931 213.896 34.8485ZM203.413 42.5673C204.569 42.5673 205.62 42.3724 206.566 41.9825C207.538 41.5927 208.366 41.0599 209.049 40.3842C209.732 39.6825 210.257 38.8638 210.625 37.9282C211.019 36.9926 211.216 35.966 211.216 34.8485C211.216 33.7309 211.019 32.7044 210.625 31.7687C210.257 30.8331 209.732 30.0275 209.049 29.3517C208.366 28.65 207.538 28.1043 206.566 27.7144C205.62 27.3246 204.569 27.1297 203.413 27.1297C202.257 27.1297 201.193 27.3246 200.221 27.7144C199.276 28.1043 198.461 28.65 197.778 29.3517C197.095 30.0275 196.556 30.8331 196.162 31.7687C195.795 32.7044 195.611 33.7309 195.611 34.8485C195.611 35.966 195.795 36.9926 196.162 37.9282C196.556 38.8638 197.095 39.6825 197.778 40.3842C198.461 41.0599 199.276 41.5927 200.221 41.9825C201.193 42.3724 202.257 42.5673 203.413 42.5673Z" fill="#142928"/>
<path d="M237.14 34.8485C237.14 36.3039 236.877 37.6553 236.352 38.9028C235.853 40.1503 235.13 41.2288 234.185 42.1385C233.265 43.0221 232.162 43.7238 230.874 44.2436C229.587 44.7374 228.182 44.9843 226.658 44.9843C225.108 44.9843 223.689 44.7374 222.402 44.2436C221.141 43.7238 220.037 43.0221 219.091 42.1385C218.172 41.2288 217.449 40.1503 216.924 38.9028C216.425 37.6553 216.175 36.3039 216.175 34.8485C216.175 33.3931 216.425 32.0416 216.924 30.7941C217.449 29.5467 218.172 28.4811 219.091 27.5975C220.037 26.6878 221.141 25.9861 222.402 25.4923C223.689 24.9726 225.108 24.7127 226.658 24.7127C228.182 24.7127 229.587 24.9726 230.874 25.4923C232.162 25.9861 233.265 26.6878 234.185 27.5975C235.13 28.4811 235.853 29.5467 236.352 30.7941C236.877 32.0416 237.14 33.3931 237.14 34.8485ZM226.658 42.5673C227.814 42.5673 228.865 42.3724 229.81 41.9825C230.782 41.5927 231.61 41.0599 232.293 40.3842C232.976 39.6825 233.502 38.8638 233.869 37.9282C234.263 36.9926 234.46 35.966 234.46 34.8485C234.46 33.7309 234.263 32.7044 233.869 31.7687C233.502 30.8331 232.976 30.0275 232.293 29.3517C231.61 28.65 230.782 28.1043 229.81 27.7144C228.865 27.3246 227.814 27.1297 226.658 27.1297C225.502 27.1297 224.438 27.3246 223.466 27.7144C222.52 28.1043 221.706 28.65 221.022 29.3517C220.339 30.0275 219.801 30.8331 219.407 31.7687C219.039 32.7044 218.855 33.7309 218.855 34.8485C218.855 35.966 219.039 36.9926 219.407 37.9282C219.801 38.8638 220.339 39.6825 221.022 40.3842C221.706 41.0599 222.52 41.5927 223.466 41.9825C224.438 42.3724 225.502 42.5673 226.658 42.5673Z" fill="#142928"/>
<path d="M253.803 44.4775V33.2111C253.803 31.184 253.278 29.6636 252.227 28.65C251.176 27.6364 249.863 27.1297 248.286 27.1297C246.71 27.1297 245.41 27.6364 244.385 28.65C243.36 29.6376 242.848 31.158 242.848 33.2111V44.4775H240.208V33.2111C240.208 31.7817 240.405 30.5343 240.799 29.4687C241.193 28.4031 241.745 27.5195 242.454 26.8178C243.163 26.1161 243.991 25.5963 244.937 25.2584C245.909 24.8946 246.96 24.7127 248.089 24.7127C249.666 24.7127 251.058 25.0765 252.267 25.8042C253.501 26.5059 254.434 27.5585 255.064 28.9619H255.143C255.748 27.5585 256.654 26.5059 257.862 25.8042C259.097 25.0765 260.516 24.7127 262.118 24.7127C263.248 24.7127 264.286 24.8946 265.232 25.2584C266.204 25.5963 267.044 26.1161 267.754 26.8178C268.463 27.5195 269.015 28.4031 269.409 29.4687C269.803 30.5343 270 31.7817 270 33.2111V44.4775H267.36V33.2111C267.36 31.158 266.847 29.6376 265.823 28.65C264.798 27.6364 263.498 27.1297 261.921 27.1297C260.345 27.1297 259.032 27.6364 257.981 28.65C256.956 29.6636 256.444 31.184 256.444 33.2111V44.4775H253.803Z" fill="#142928"/>
<ellipse cx="110.393" cy="21.594" rx="2.64063" ry="2.61224" fill="#142928"/>
<ellipse cx="139.026" cy="21.594" rx="2.64063" ry="2.61224" fill="#142928"/>
</svg>
