<svg width="29" height="27" viewBox="0 0 29 27" fill="none" xmlns="http://www.w3.org/2000/svg">
<path d="M14.5172 20.276H3.89655C2.83007 20.276 1.96552 19.4115 1.96552 18.345V7.72431C1.96552 6.65783 2.83007 5.79328 3.89655 5.79328H7.75862L9.68965 2.89673H15.4828L17.4138 5.79328H21.2759C22.3423 5.79328 23.2069 6.65783 23.2069 7.72431V11.5864" stroke="white" stroke-width="2" stroke-linecap="round" stroke-linejoin="round"/>
<path fill-rule="evenodd" clip-rule="evenodd" d="M12.5862 16.4138C14.7192 16.4138 16.4483 14.6847 16.4483 12.5518C16.4483 10.4188 14.7192 8.6897 12.5862 8.6897C10.4532 8.6897 8.72414 10.4188 8.72414 12.5518C8.72414 14.6847 10.4532 16.4138 12.5862 16.4138Z" stroke="white" stroke-width="2" stroke-linecap="round" stroke-linejoin="round"/>
<path d="M19.2241 20.2759H27.1896" stroke="white" stroke-width="2" stroke-linecap="round" stroke-linejoin="round"/>
<path d="M23.2069 16.2932V24.2587" stroke="white" stroke-width="2" stroke-linecap="round" stroke-linejoin="round"/>
</svg>
