<svg width="26" height="26" viewBox="0 0 26 26" fill="none" xmlns="http://www.w3.org/2000/svg">
<path d="M4.61386 17.976C3.40249 15.9339 2.97825 13.5199 3.42082 11.1871C3.86339 8.85441 5.14232 6.76347 7.01744 5.30696C8.89257 3.85045 11.2349 3.12856 13.6046 3.27685C15.9743 3.42514 18.2084 4.43341 19.8873 6.11232C21.5662 7.79123 22.5745 10.0253 22.7228 12.395C22.8711 14.7647 22.1492 17.1071 20.6927 18.9822C19.2362 20.8573 17.1453 22.1363 14.8126 22.5788C12.4798 23.0214 10.0658 22.5972 8.02369 21.3858L8.02372 21.3857L4.65625 22.3479C4.51693 22.3877 4.3695 22.3895 4.22923 22.3532C4.08896 22.3168 3.96097 22.2436 3.85851 22.1412C3.75605 22.0387 3.68286 21.9107 3.64651 21.7704C3.61017 21.6302 3.61199 21.4827 3.6518 21.3434L4.61393 17.976L4.61386 17.976Z" stroke="white" stroke-width="2" stroke-linecap="round" stroke-linejoin="round"/>
<path d="M8.12476 14.2227C8.79785 14.2227 9.34351 13.677 9.34351 13.0039C9.34351 12.3308 8.79785 11.7852 8.12476 11.7852C7.45166 11.7852 6.90601 12.3308 6.90601 13.0039C6.90601 13.677 7.45166 14.2227 8.12476 14.2227Z" fill="white"/>
<path d="M13 14.2227C13.6731 14.2227 14.2188 13.677 14.2188 13.0039C14.2188 12.3308 13.6731 11.7852 13 11.7852C12.3269 11.7852 11.7812 12.3308 11.7812 13.0039C11.7812 13.677 12.3269 14.2227 13 14.2227Z" fill="white"/>
<path d="M17.8752 14.2227C18.5483 14.2227 19.094 13.677 19.094 13.0039C19.094 12.3308 18.5483 11.7852 17.8752 11.7852C17.2021 11.7852 16.6565 12.3308 16.6565 13.0039C16.6565 13.677 17.2021 14.2227 17.8752 14.2227Z" fill="white"/>
</svg>
