<svg width="22" height="22" viewBox="0 0 22 22" fill="none" xmlns="http://www.w3.org/2000/svg">
    <path d="M11 6.875V11" stroke="white" stroke-width="1.5" stroke-linecap="round" stroke-linejoin="round"/>
    <path d="M14.5724 13.0625L11 11" stroke="white" stroke-width="1.5" stroke-linecap="round" stroke-linejoin="round"/>
    <path d="M6.17316 8.56934H2.73566V5.13184" stroke="white" stroke-width="1.5" stroke-linecap="round"
          stroke-linejoin="round"/>
    <path d="M5.65253 16.3475C6.71017 17.4051 8.05768 18.1254 9.52466 18.4172C10.9916 18.709 12.5122 18.5592 13.8941 17.9868C15.2759 17.4145 16.457 16.4451 17.288 15.2015C18.119 13.9579 18.5625 12.4957 18.5625 11C18.5625 9.50428 18.119 8.04215 17.288 6.7985C16.457 5.55486 15.2759 4.58555 13.8941 4.01316C12.5122 3.44078 10.9916 3.29101 9.52466 3.58281C8.05768 3.87462 6.71017 4.59487 5.65253 5.65251L2.73572 8.56932"
          stroke="white" stroke-width="1.5" stroke-linecap="round" stroke-linejoin="round"/>
</svg>
