<svg width="38" height="38" viewBox="0 0 38 38" fill="none" xmlns="http://www.w3.org/2000/svg">
<path d="M23.0629 15.0294C20.4112 14.1197 17.5309 14.1262 14.8834 15.048C14.6909 15.1167 14.5197 15.2343 14.3865 15.3893C14.2533 15.5443 14.1628 15.7313 14.1238 15.9319L13.2483 20.3119C13.2096 20.5056 13.1231 20.6866 12.9968 20.8385C12.8705 20.9904 12.7083 21.1084 12.5249 21.1817L5.5019 23.9909C5.26395 24.087 5.00124 24.1031 4.75334 24.0369C4.50543 23.9706 4.28577 23.8256 4.12744 23.6237C3.06695 22.2525 2.54264 20.5417 2.65269 18.8117C2.76274 17.0817 3.4996 15.4511 4.72529 14.2253C8.51118 10.4394 13.646 8.3125 19 8.3125C24.3541 8.3125 29.4888 10.4394 33.2747 14.2253C34.5004 15.4511 35.2373 17.0817 35.3473 18.8117C35.4574 20.5417 34.9331 22.2525 33.8726 23.6237C33.7142 23.8256 33.4946 23.9706 33.2467 24.0369C32.9988 24.1031 32.7361 24.087 32.4981 23.9909L25.469 21.1793C25.2872 21.1066 25.1262 20.99 25.0004 20.84C24.8745 20.69 24.7877 20.5112 24.7477 20.3195L23.8257 15.9052C23.7852 15.7057 23.6936 15.5202 23.5599 15.3666C23.4262 15.2131 23.2549 15.0969 23.0629 15.0294Z" stroke="white" stroke-width="2" stroke-linecap="round" stroke-linejoin="round"/>
<path d="M5.9375 29.6875H32.0625" stroke="white" stroke-width="2" stroke-linecap="round" stroke-linejoin="round"/>
</svg>
