<svg width="22" height="22" viewBox="0 0 22 22" fill="none" xmlns="http://www.w3.org/2000/svg">
    <path d="M11 19.25C15.5563 19.25 19.25 15.5563 19.25 11C19.25 6.44365 15.5563 2.75 11 2.75C6.44365 2.75 2.75 6.44365 2.75 11C2.75 15.5563 6.44365 19.25 11 19.25Z"
          stroke="white" stroke-width="1.5" stroke-linecap="round" stroke-linejoin="round"/>
    <path d="M11 13.0625V12.375C11.5439 12.375 12.0756 12.2137 12.5278 11.9115C12.9801 11.6094 13.3325 11.1799 13.5407 10.6774C13.7488 10.1749 13.8033 9.62195 13.6972 9.0885C13.591 8.55506 13.3291 8.06505 12.9445 7.68046C12.5599 7.29586 12.0699 7.03395 11.5365 6.92784C11.0031 6.82173 10.4501 6.87619 9.94762 7.08433C9.44512 7.29247 9.01563 7.64495 8.71346 8.09718C8.41128 8.54942 8.25 9.0811 8.25 9.625"
          stroke="white" stroke-width="1.5" stroke-linecap="round" stroke-linejoin="round"/>
    <path d="M11 16.8438C11.5695 16.8438 12.0312 16.382 12.0312 15.8125C12.0312 15.243 11.5695 14.7812 11 14.7812C10.4305 14.7812 9.96875 15.243 9.96875 15.8125C9.96875 16.382 10.4305 16.8438 11 16.8438Z"
          fill="white"/>
</svg>
