<svg width="28" height="28" viewBox="0 0 28 28" fill="none" xmlns="http://www.w3.org/2000/svg">
    <path d="M5.25 4.37512L22.75 23.6251" stroke="#B3B3B3" stroke-width="1.5" stroke-linecap="round"
          stroke-linejoin="round"/>
    <path d="M16.943 17.2373C16.0844 18.0177 14.9509 18.4251 13.792 18.3699C12.633 18.3146 11.5435 17.8013 10.763 16.9428C9.98254 16.0843 9.57506 14.9509 9.63019 13.7919C9.68533 12.633 10.1986 11.5434 11.057 10.7628"
          stroke="#B3B3B3" stroke-width="1.5" stroke-linecap="round" stroke-linejoin="round"/>
    <path d="M8.09314 7.50256C3.63401 9.76067 1.75 14.0001 1.75 14.0001C1.75 14.0001 5.25 21.8743 14 21.8743C16.0501 21.8906 18.0746 21.4184 19.906 20.4968"
          stroke="#B3B3B3" stroke-width="1.5" stroke-linecap="round" stroke-linejoin="round"/>
    <path d="M22.8166 18.4954C25.2011 16.3596 26.2499 14.0001 26.2499 14.0001C26.2499 14.0001 22.7499 6.12429 13.9999 6.12429C13.2421 6.12305 12.4854 6.18466 11.7378 6.30849"
          stroke="#B3B3B3" stroke-width="1.5" stroke-linecap="round" stroke-linejoin="round"/>
    <path d="M14.8232 9.70251C15.7531 9.88107 16.6 10.3563 17.237 11.0569C17.8739 11.7576 18.2665 12.6458 18.3558 13.5885"
          stroke="#B3B3B3" stroke-width="1.5" stroke-linecap="round" stroke-linejoin="round"/>
</svg>
