<svg width="16" height="16" viewBox="0 0 16 16" fill="none" xmlns="http://www.w3.org/2000/svg">
    <path d="M8 14.5C9.28558 14.5 10.5423 14.1188 11.6112 13.4046C12.6801 12.6903 13.5132 11.6752 14.0052 10.4874C14.4972 9.29972 14.6259 7.99279 14.3751 6.73191C14.1243 5.47104 13.5052 4.31285 12.5962 3.40381C11.6872 2.49476 10.529 1.8757 9.26809 1.6249C8.00721 1.37409 6.70028 1.50281 5.51256 1.99478C4.32484 2.48675 3.30968 3.31987 2.59545 4.38879C1.88122 5.45771 1.5 6.71442 1.5 8C1.50194 9.72331 2.18739 11.3755 3.40595 12.594C4.62452 13.8126 6.27669 14.4981 8 14.5ZM8.5 11C8.5 11.1326 8.44732 11.2598 8.35355 11.3536C8.25978 11.4473 8.13261 11.5 8 11.5C7.86739 11.5 7.74021 11.4473 7.64644 11.3536C7.55268 11.2598 7.5 11.1326 7.5 11L7.5 7.5C7.5 7.36739 7.55268 7.24021 7.64644 7.14645C7.74021 7.05268 7.86739 7 8 7C8.13261 7 8.25978 7.05268 8.35355 7.14645C8.44732 7.24021 8.5 7.36739 8.5 7.5L8.5 11ZM8 4.5C8.14833 4.5 8.29334 4.54399 8.41668 4.6264C8.54001 4.70881 8.63614 4.82594 8.69291 4.96299C8.74967 5.10003 8.76453 5.25083 8.73559 5.39632C8.70665 5.5418 8.63522 5.67544 8.53033 5.78033C8.42544 5.88522 8.2918 5.95665 8.14632 5.98559C8.00083 6.01453 7.85003 5.99968 7.71299 5.94291C7.57594 5.88614 7.45881 5.79001 7.3764 5.66668C7.29398 5.54334 7.25 5.39834 7.25 5.25C7.25 5.05109 7.32902 4.86032 7.46967 4.71967C7.61032 4.57902 7.80109 4.5 8 4.5Z"
          fill="#03304F"/>
</svg>
