<svg width="26" height="26" viewBox="0 0 26 26" fill="none" xmlns="http://www.w3.org/2000/svg">
<path d="M13 2.4375H13C14.0774 2.4375 15.1108 2.86551 15.8726 3.62738C16.6345 4.38925 17.0625 5.42256 17.0625 6.5V13C17.0625 14.0774 16.6345 15.1108 15.8726 15.8726C15.1108 16.6345 14.0774 17.0625 13 17.0625H13C12.4665 17.0625 11.9382 16.9574 11.4453 16.7533C10.9525 16.5491 10.5046 16.2499 10.1274 15.8726C9.75014 15.4954 9.4509 15.0475 9.24674 14.5547C9.04258 14.0618 8.9375 13.5335 8.9375 13V6.49999C8.9375 5.42255 9.36551 4.38924 10.1274 3.62738C10.8892 2.86551 11.9226 2.4375 13 2.4375V2.4375Z" stroke="white" stroke-width="2" stroke-linecap="round" stroke-linejoin="round"/>
<path d="M13 20.3125V23.5625" stroke="white" stroke-width="2" stroke-linecap="round" stroke-linejoin="round"/>
<path d="M20.2679 13.8125C20.0679 15.6001 19.2161 17.2513 17.8753 18.4504C16.5345 19.6496 14.7988 20.3125 13 20.3125C11.2013 20.3125 9.46559 19.6496 8.12481 18.4504C6.78403 17.2513 5.9322 15.6001 5.73218 13.8125" stroke="white" stroke-width="2" stroke-linecap="round" stroke-linejoin="round"/>
</svg>
