<svg width="40" height="40" viewBox="0 0 40 40" fill="none" xmlns="http://www.w3.org/2000/svg">
<path d="M12.5 19.9988H27.5" stroke="white" stroke-width="2" stroke-linecap="round" stroke-linejoin="round"/>
<path d="M16.2489 27.4993H9.99893C8.0098 27.4993 6.10215 26.7091 4.69563 25.3026C3.2891 23.896 2.49893 21.9884 2.49893 19.9993C2.49893 18.0101 3.2891 16.1025 4.69563 14.696C6.10215 13.2894 8.0098 12.4993 9.99893 12.4993H16.2489" stroke="white" stroke-width="2" stroke-linecap="round" stroke-linejoin="round"/>
<path d="M23.75 27.4993H30C31.9891 27.4993 33.8968 26.7091 35.3033 25.3026C36.7098 23.896 37.5 21.9884 37.5 19.9993C37.5 18.0101 36.7098 16.1025 35.3033 14.696C33.8968 13.2894 31.9891 12.4993 30 12.4993H23.75" stroke="white" stroke-width="2" stroke-linecap="round" stroke-linejoin="round"/>
</svg>
