<svg width="26" height="26" viewBox="0 0 26 26" fill="none" xmlns="http://www.w3.org/2000/svg">
    <path d="M5.70809 10.5624C5.70674 9.59882 5.89613 8.64447 6.26534 7.75439C6.63455 6.86431 7.17628 6.05611 7.8593 5.37637C8.54232 4.69663 9.35312 4.1588 10.245 3.79388C11.1368 3.42895 12.0921 3.24416 13.0557 3.25014C17.0765 3.28003 20.2927 6.62215 20.2927 10.6542V11.3749C20.2927 15.0125 21.0537 17.1233 21.724 18.2769C21.7962 18.4002 21.8346 18.5403 21.8354 18.6832C21.8361 18.8261 21.7992 18.9666 21.7283 19.0906C21.6574 19.2147 21.5551 19.3178 21.4316 19.3897C21.3082 19.4615 21.1679 19.4996 21.0251 19.4999H4.97487C4.83199 19.4996 4.69174 19.4615 4.56825 19.3897C4.44477 19.3178 4.34243 19.2146 4.27156 19.0905C4.20068 18.9665 4.16377 18.8259 4.16456 18.683C4.16535 18.5402 4.20381 18.4 4.27605 18.2768C4.9467 17.1231 5.70808 15.0123 5.70808 11.3749L5.70809 10.5624Z"
          stroke="white" stroke-width="2" stroke-linecap="round" stroke-linejoin="round"/>
    <path d="M9.75 19.5V20.3125C9.75 21.1745 10.0924 22.0011 10.7019 22.6106C11.3114 23.2201 12.138 23.5625 13 23.5625C13.862 23.5625 14.6886 23.2201 15.2981 22.6106C15.9076 22.0011 16.25 21.1745 16.25 20.3125V19.5"
          stroke="white" stroke-width="2" stroke-linecap="round" stroke-linejoin="round"/>
</svg>
