<svg width="26" height="26" viewBox="0 0 26 26" fill="none" xmlns="http://www.w3.org/2000/svg">
<path d="M22.2965 12.2907L5.14113 2.68367C4.99681 2.60285 4.83125 2.568 4.66659 2.58379C4.50193 2.59958 4.34602 2.66524 4.21968 2.77202C4.09334 2.87879 4.0026 3.02158 3.95959 3.1813C3.91658 3.34103 3.92334 3.51007 3.97898 3.66585L7.21486 12.7263C7.27798 12.9031 7.27798 13.0962 7.21486 13.2729L3.97898 22.3334C3.92334 22.4891 3.91658 22.6582 3.95959 22.8179C4.0026 22.9776 4.09334 23.1204 4.21968 23.2272C4.34602 23.334 4.50193 23.3996 4.66659 23.4154C4.83125 23.4312 4.99681 23.3964 5.14113 23.3156L22.2965 13.7085C22.4226 13.638 22.5275 13.5351 22.6005 13.4105C22.6736 13.2859 22.7121 13.144 22.7121 12.9996C22.7121 12.8552 22.6736 12.7134 22.6005 12.5888C22.5275 12.4642 22.4226 12.3613 22.2965 12.2907V12.2907Z" stroke="white" stroke-width="2" stroke-linecap="round" stroke-linejoin="round"/>
<path d="M7.3125 13H13.8125" stroke="white" stroke-width="2" stroke-linecap="round" stroke-linejoin="round"/>
</svg>
