<svg width="22" height="22" viewBox="0 0 22 22" fill="none" xmlns="http://www.w3.org/2000/svg">
    <path d="M15.8977 3.18548L12.2916 6.79158L12.7777 9.22226L15.2084 9.70839L18.8145 6.1023L18.8148 6.10215C19.2612 7.15576 19.3679 8.32233 19.1202 9.43946C18.8725 10.5566 18.2827 11.5687 17.4328 12.3349C16.5829 13.1011 15.5153 13.5833 14.3786 13.7143C13.2419 13.8454 12.0926 13.6187 11.0907 13.066L11.0908 13.0658L6.27087 18.6459C5.884 19.0323 5.35951 19.2493 4.81271 19.2492C4.2659 19.249 3.74154 19.0317 3.35489 18.6451C2.96824 18.2584 2.75095 17.734 2.75079 17.1872C2.75064 16.6404 2.96763 16.1159 3.35406 15.7291L8.9341 10.9092L8.93398 10.9093C8.38122 9.9074 8.15459 8.75809 8.28562 7.62135C8.41665 6.48461 8.89883 5.41701 9.66504 4.56714C10.4312 3.71728 11.4434 3.12744 12.5605 2.87974C13.6776 2.63203 14.8442 2.73878 15.8978 3.18513L15.8977 3.18548Z"
          stroke="white" stroke-width="1.5" stroke-linecap="round" stroke-linejoin="round"/>
</svg>
