<svg width="30" height="30" viewBox="0 0 30 30" fill="none" xmlns="http://www.w3.org/2000/svg">
    <path d="M20.625 6.5625H26.25" stroke="white" stroke-width="2" stroke-linecap="round" stroke-linejoin="round"/>
    <path d="M23.4375 3.75V9.375" stroke="white" stroke-width="2" stroke-linecap="round" stroke-linejoin="round"/>
    <path d="M3.63153 25.3114C4.78414 23.3164 6.44147 21.6598 8.43702 20.508C10.4326 19.3563 12.6961 18.75 15.0001 18.75C17.3042 18.75 19.5677 19.3564 21.5632 20.5082C23.5588 21.6599 25.216 23.3166 26.3686 25.3116"
          stroke="white" stroke-width="2" stroke-linecap="round" stroke-linejoin="round"/>
    <path d="M22.0373 13.8495C21.5359 15.2031 20.6544 16.3832 19.4987 17.248C18.343 18.1128 16.9621 18.6255 15.5221 18.7245C14.082 18.8235 12.644 18.5046 11.3807 17.8062C10.1175 17.1078 9.08279 16.0594 8.4009 14.7872C7.71901 13.515 7.41895 12.0729 7.53676 10.6342C7.65458 9.1956 8.18526 7.82157 9.06505 6.67721C9.94484 5.53286 11.1363 4.66685 12.4964 4.18324C13.8564 3.69962 15.3271 3.61897 16.7319 3.95096"
          stroke="white" stroke-width="2" stroke-linecap="round" stroke-linejoin="round"/>
</svg>
