<svg width="26" height="26" viewBox="0 0 26 26" fill="none" xmlns="http://www.w3.org/2000/svg">
<path d="M22.2302 7.8291C22.9093 8.50813 23.4479 9.31425 23.8154 10.2014C24.1829 11.0886 24.372 12.0395 24.372 12.9998C24.372 13.9601 24.1829 14.911 23.8154 15.7982C23.4479 16.6854 22.9093 17.4915 22.2302 18.1705" stroke="white" stroke-width="2" stroke-linecap="round" stroke-linejoin="round"/>
<path d="M8.125 17.0625H3.25C3.03451 17.0625 2.82785 16.9769 2.67548 16.8245C2.5231 16.6722 2.4375 16.4655 2.4375 16.25V9.75C2.4375 9.53451 2.5231 9.32785 2.67548 9.17548C2.82785 9.0231 3.03451 8.9375 3.25 8.9375H8.125L15.4375 3.25V22.75L8.125 17.0625Z" stroke="white" stroke-width="2" stroke-linecap="round" stroke-linejoin="round"/>
<path d="M8.125 8.9375V17.0625" stroke="white" stroke-width="2" stroke-linecap="round" stroke-linejoin="round"/>
<path d="M19.3575 10.7021C19.6593 11.0039 19.8987 11.3622 20.0621 11.7565C20.2254 12.1508 20.3094 12.5734 20.3094 13.0002C20.3094 13.427 20.2254 13.8497 20.0621 14.244C19.8987 14.6383 19.6593 14.9966 19.3575 15.2983" stroke="white" stroke-width="2" stroke-linecap="round" stroke-linejoin="round"/>
</svg>
