<svg width="22" height="22" viewBox="0 0 22 22" fill="none" xmlns="http://www.w3.org/2000/svg">
<path d="M18.5632 6.1875H3.43817C3.05848 6.1875 2.75067 6.4953 2.75067 6.875V17.875C2.75067 18.2547 3.05848 18.5625 3.43817 18.5625H18.5632C18.9429 18.5625 19.2507 18.2547 19.2507 17.875V6.875C19.2507 6.4953 18.9429 6.1875 18.5632 6.1875Z" stroke="white" stroke-width="1.5" stroke-linecap="round" stroke-linejoin="round"/>
<path d="M14.4375 6.1875V4.8125C14.4375 4.44783 14.2926 4.09809 14.0348 3.84023C13.7769 3.58237 13.4272 3.4375 13.0625 3.4375H8.9375C8.57283 3.4375 8.22309 3.58237 7.96523 3.84023C7.70737 4.09809 7.5625 4.44783 7.5625 4.8125V6.1875" stroke="white" stroke-width="1.5" stroke-linecap="round" stroke-linejoin="round"/>
<path d="M19.2507 10.8547C16.7433 12.3054 13.8968 13.0671 11 13.0625C8.10367 13.0671 5.25766 12.3057 2.75055 10.8555" stroke="white" stroke-width="1.5" stroke-linecap="round" stroke-linejoin="round"/>
<path d="M9.96875 10.3125H12.0312" stroke="white" stroke-width="1.5" stroke-linecap="round" stroke-linejoin="round"/>
</svg>
