<svg width="26" height="26" viewBox="0 0 26 26" fill="none" xmlns="http://www.w3.org/2000/svg">
<path d="M2.4375 5.09375H15.4375C16.2995 5.09375 17.1261 5.43616 17.7356 6.04565C18.3451 6.65515 18.6875 7.4818 18.6875 8.34375V18.0938C18.6875 18.3092 18.6019 18.5159 18.4495 18.6683C18.2972 18.8206 18.0905 18.9062 17.875 18.9062H4.875C4.01305 18.9062 3.1864 18.5638 2.5769 17.9543C1.96741 17.3449 1.625 16.5182 1.625 15.6562V5.90625C1.625 5.69076 1.7106 5.4841 1.86298 5.33173C2.01535 5.17935 2.22201 5.09375 2.4375 5.09375V5.09375Z" stroke="white" stroke-width="2" stroke-linecap="round" stroke-linejoin="round"/>
<path d="M18.6875 10.375L24.375 7.125V16.875L18.6875 13.625" stroke="white" stroke-width="2" stroke-linecap="round" stroke-linejoin="round"/>
</svg>
